<svg width="28" height="22" viewBox="0 0 28 22" fill="none" xmlns="http://www.w3.org/2000/svg">
<g clip-path="url(#clip0_211_1514)">
<path d="M6.78397 11.5944C9.44334 11.5944 11.5992 9.43916 11.5992 6.78058C11.5992 4.122 9.44334 1.9668 6.78397 1.9668C4.1246 1.9668 1.96875 4.122 1.96875 6.78058C1.96875 9.43916 4.1246 11.5944 6.78397 11.5944Z" fill="#F15207"/>
<path opacity="0.25" d="M6.78229 13.5605C10.528 13.5605 13.5646 10.5249 13.5646 6.78026C13.5646 3.03563 10.528 0 6.78229 0C3.03654 0 0 3.03563 0 6.78026C0 10.5249 3.03654 13.5605 6.78229 13.5605Z" fill="#F15207"/>
<path d="M26.4379 10.2369L22.3295 5.72528C21.5151 4.91103 20.1934 4.91103 19.3738 5.7304C19.1126 5.99157 18.9384 6.30396 18.8462 6.6317C18.0266 6.00694 16.8484 6.06839 16.0954 6.82118C15.8341 7.08236 15.66 7.39474 15.5677 7.72249C14.7481 7.09772 13.5699 7.15917 12.8169 7.91196C12.5608 8.16802 12.3866 8.47016 12.2944 8.79278L10.3478 6.86215C9.53335 6.04791 8.21173 6.04791 7.39212 6.86727C6.57763 7.68152 6.57763 9.00275 7.39212 9.81699L14.8301 17.2579L10.4196 17.9492C9.226 18.1182 8.32955 19.1578 8.32955 20.3612C8.32955 21.2625 9.0672 22 9.96877 22H20.2754C21.8788 22 23.3899 21.3752 24.5271 20.2383L26.2483 18.5176C27.3804 17.3859 28.0054 15.8752 28.0054 14.2723C28.0002 12.7821 27.4419 11.3482 26.4379 10.2369ZM25.4646 17.7495L23.7434 19.4702C22.8162 20.3971 21.5817 20.9092 20.2652 20.9092H9.96877C9.66654 20.9092 9.42066 20.6634 9.42066 20.3612C9.42066 19.6955 9.91755 19.127 10.5835 19.0297L16.0646 18.1694C16.2695 18.1387 16.4335 17.9953 16.5001 17.8007C16.5615 17.6061 16.5103 17.391 16.3669 17.2476L8.16563 9.04884C7.77631 8.65964 7.77631 8.02975 8.17075 7.63543C8.36541 7.44083 8.62154 7.34353 8.87254 7.34353C9.12867 7.34353 9.37968 7.44083 9.57433 7.63543L15.0401 13.0996C15.2553 13.3147 15.5985 13.3147 15.8136 13.0996C15.9212 12.992 15.9724 12.8538 15.9724 12.7104C15.9724 12.567 15.9212 12.4287 15.8136 12.3212L13.5802 10.0884C13.1909 9.69921 13.1909 9.06932 13.5853 8.675C13.9746 8.2858 14.6047 8.2858 14.994 8.675L17.2275 10.9078C17.4426 11.1229 17.7858 11.1229 18.001 10.9078C18.1085 10.8002 18.1598 10.662 18.1598 10.5186C18.1598 10.3752 18.1085 10.2369 18.001 10.1294L16.8586 8.98738C16.4693 8.59818 16.4693 7.9683 16.8638 7.57398C17.2531 7.18478 17.8832 7.18478 18.2725 7.57398L19.4199 8.72109C19.6351 8.92593 19.9732 8.92081 20.1832 8.71085C20.3983 8.49576 20.3983 8.15265 20.1832 7.93757L20.1371 7.89148C19.9476 7.702 19.8451 7.45107 19.8451 7.1899C19.8451 6.92872 19.9476 6.67779 20.1422 6.48319C20.5315 6.09399 21.1616 6.09912 21.5304 6.46271L25.6234 10.959C26.4481 11.8654 26.8989 13.0381 26.8989 14.2621C26.904 15.5884 26.3969 16.8226 25.4646 17.7495Z" fill="#1C1C1C"/>
</g>
<defs>
<clipPath id="clip0_211_1514">
<rect width="28" height="22" fill="white"/>
</clipPath>
</defs>
</svg>
